<?xml version="1.0" encoding="UTF-8" standalone="no"?>
<!DOCTYPE svg PUBLIC "-//W3C//DTD SVG 1.1//EN" "http://www.w3.org/Graphics/SVG/1.1/DTD/svg11.dtd">
<svg width="100%" height="100%" viewBox="0 0 64 64" version="1.1" style="fill-rule:evenodd;clip-rule:evenodd;stroke-linejoin:round;stroke-miterlimit:2;">
    <g transform="matrix(1,0,0,1,-101,-694)">
        <g id="biometrics" transform="matrix(1,0,0,1,101.076,693.632)">
            <rect x="0" y="0" width="64" height="64" style="fill:none;"/>
            <g transform="matrix(1,0,0,1,-101.076,-692.132)">
                <path d="M148.469,709.229L145.171,713.206L142.798,711.238C141.559,710.211 139.719,710.382 138.691,711.622C137.663,712.861 137.835,714.701 139.074,715.728L141.448,717.697L138.15,721.674L135.776,719.706C134.537,718.678 132.697,718.85 131.669,720.089C130.642,721.328 130.814,723.168 132.053,724.196L134.426,726.164L131.128,730.141L125.676,725.62C124.436,724.592 122.596,724.764 121.569,726.003C120.541,727.242 120.713,729.082 121.952,730.11L129.651,736.494C130.657,737.328 132.06,737.371 133.102,736.693L133.528,736.355L133.756,736.11L154.822,710.708L154.845,710.679L154.869,710.649L154.892,710.62L154.914,710.59C155.487,709.823 155.628,708.855 155.365,707.992L155.354,707.958L155.344,707.925L155.332,707.891L155.321,707.858L155.309,707.825L155.296,707.792L155.283,707.759L155.27,707.726L155.256,707.694L155.242,707.662L155.228,707.629L155.213,707.597L155.197,707.565L155.182,707.533L155.165,707.502L155.149,707.47L155.132,707.439L155.115,707.408L155.097,707.377L155.079,707.346L155.06,707.316L155.041,707.285L155.022,707.255L155.002,707.225L154.982,707.196L154.961,707.166L154.94,707.137L154.919,707.108L154.897,707.079L154.875,707.05L154.853,707.022L154.83,706.993L154.806,706.965L154.783,706.938L154.758,706.91L154.734,706.883L154.709,706.856L154.684,706.829L154.658,706.803L154.632,706.777L154.605,706.751L154.579,706.725L154.551,706.7L154.524,706.674L154.496,706.65L154.467,706.625L154.438,706.601L149.82,702.771C148.581,701.743 146.74,701.915 145.713,703.154C144.685,704.393 144.857,706.234 146.096,707.261L148.469,709.229Z"/>
            </g>
            <g transform="matrix(1,0,0,1,2,0)">
                <path d="M35,7L7,7C5.343,7 4,8.343 4,10L4,57C4,58.657 5.343,60 7,60L53,60C54.657,60 56,58.657 56,57L56,29C56,27.344 54.656,26 53,26C51.344,26 50,27.344 50,29L50,54C50,54 10,54 10,54C10,54 10,13 10,13C10,13 35,13 35,13C36.656,13 38,11.656 38,10C38,8.344 36.656,7 35,7Z"/>
            </g>
        </g>
    </g>
</svg>
