<?xml version="1.0" encoding="UTF-8" standalone="no"?>
<!DOCTYPE svg PUBLIC "-//W3C//DTD SVG 1.1//EN" "http://www.w3.org/Graphics/SVG/1.1/DTD/svg11.dtd">
<svg width="100%" height="100%" viewBox="0 0 65 65" version="1.1" style="fill-rule:evenodd;clip-rule:evenodd;stroke-linejoin:round;stroke-miterlimit:2;">
    <g transform="matrix(1,0,0,1,-91,-871)">
        <g id="cancel" transform="matrix(1,0,0,1,91.0764,871.632)">
            <rect x="0" y="0" width="64" height="64" style="fill:none;"/>
            <g transform="matrix(1,0,0,1,-91.0764,-871.632)">
                <path d="M118.952,903.632L102.014,920.57C100.876,921.708 100.876,923.556 102.014,924.694C103.152,925.833 105.001,925.833 106.139,924.694L123.076,907.757L140.014,924.694C141.152,925.833 143.001,925.833 144.139,924.694C145.277,923.556 145.277,921.708 144.139,920.57L127.201,903.632L144.139,886.694C145.277,885.556 145.277,883.708 144.139,882.57C143.001,881.431 141.152,881.431 140.014,882.57L123.076,899.507L106.139,882.57C105.001,881.431 103.152,881.431 102.014,882.57C100.876,883.708 100.876,885.556 102.014,886.694L118.952,903.632Z"/>
            </g>
        </g>
    </g>
</svg>
