<?xml version="1.0" encoding="UTF-8" standalone="no"?>
<!DOCTYPE svg PUBLIC "-//W3C//DTD SVG 1.1//EN" "http://www.w3.org/Graphics/SVG/1.1/DTD/svg11.dtd">
<svg width="100%" height="100%" viewBox="0 0 64 64" version="1.1" xmlns="http://www.w3.org/2000/svg" style="fill-rule:evenodd;clip-rule:evenodd;stroke-linejoin:round;stroke-miterlimit:2;">
    <g transform="matrix(1,0,0,1,-100,-300)">
        <g id="detail" transform="matrix(1,0,0,1,100,300)">
            <rect x="0" y="0" width="64" height="64" style="fill:none;"/>
            <g transform="matrix(1,0,0,1,2,0)">
                <path d="M35,7L7,7C5.343,7 4,8.343 4,10L4,57C4,58.657 5.343,60 7,60L53,60C54.657,60 56,58.657 56,57L56,29C56,27.344 54.656,26 53,26C51.344,26 50,27.344 50,29L50,54C50,54 10,54 10,54C10,54 10,13 10,13C10,13 35,13 35,13C36.656,13 38,11.656 38,10C38,8.344 36.656,7 35,7Z"/>
            </g>
            <g transform="matrix(1,0,0,1,2,-212.242)">
                <path d="M18,261.159L43,261.159C44.61,261.159 45.917,259.852 45.917,258.242C45.917,256.633 44.61,255.326 43,255.326L18,255.326C16.39,255.326 15.083,256.633 15.083,258.242C15.083,259.852 16.39,261.159 18,261.159Z"/>
            </g>
            <g transform="matrix(1,0,0,1,2,-224.242)">
                <path d="M18,261.159L43,261.159C44.61,261.159 45.917,259.852 45.917,258.242C45.917,256.633 44.61,255.326 43,255.326L18,255.326C16.39,255.326 15.083,256.633 15.083,258.242C15.083,259.852 16.39,261.159 18,261.159Z"/>
            </g>
            <g transform="matrix(1,0,0,1,2,-236.242)">
                <path d="M18,261.159L43,261.159C44.61,261.159 45.917,259.852 45.917,258.242C45.917,256.633 44.61,255.326 43,255.326L18,255.326C16.39,255.326 15.083,256.633 15.083,258.242C15.083,259.852 16.39,261.159 18,261.159Z"/>
            </g>
        </g>
    </g>
</svg>
