<?xml version="1.0" encoding="UTF-8" standalone="no"?>
<!DOCTYPE svg PUBLIC "-//W3C//DTD SVG 1.1//EN" "http://www.w3.org/Graphics/SVG/1.1/DTD/svg11.dtd">
<svg width="100%" height="100%" viewBox="0 0 64 64" version="1.1" xmlns="http://www.w3.org/2000/svg" style="fill-rule:evenodd;clip-rule:evenodd;stroke-linejoin:round;stroke-miterlimit:2;">
    <g transform="matrix(1,0,0,1,-100,-400)">
        <g id="detail_show" transform="matrix(1,0,0,1,100,400)">
            <rect x="0" y="0" width="64" height="64" style="fill:none;"/>
            <g>
                <g transform="matrix(1,0,0,1,2,0)">
                    <path d="M35,7L7,7C5.343,7 4,8.343 4,10L4,57C4,58.657 5.343,60 7,60L53,60C54.657,60 56,58.657 56,57L56,29C56,27.344 54.656,26 53,26C51.344,26 50,27.344 50,29L50,54C50,54 10,54 10,54C10,54 10,13 10,13C10,13 35,13 35,13C36.656,13 38,11.656 38,10C38,8.344 36.656,7 35,7Z"/>
                </g>
                <g transform="matrix(1,0,0,1,-100,-400)">
                    <path d="M124.114,421.574L124.109,421.611L124.105,421.647L124.1,421.684L124.097,421.72L124.093,421.757L124.09,421.794L124.088,421.831L124.086,421.869L124.085,421.906L124.084,421.944L124.083,421.981L124.083,422L124.083,440.645L121.124,437.501C120.021,436.329 118.173,436.273 117.001,437.376C115.829,438.479 115.773,440.327 116.876,441.499L124.861,449.983C124.883,450.006 124.905,450.03 124.928,450.053L124.947,450.072C125.148,450.271 125.372,450.436 125.61,450.565L125.631,450.576C126.057,450.802 126.526,450.915 126.995,450.916L127.005,450.916C127.474,450.915 127.943,450.802 128.369,450.576L128.39,450.565C128.628,450.436 128.852,450.271 129.053,450.072L129.072,450.053C129.095,450.03 129.117,450.006 129.139,449.983L137.124,441.499C138.227,440.327 138.171,438.479 136.999,437.376C135.827,436.273 133.979,436.329 132.876,437.501L129.917,440.645L129.917,424.917L145,424.917C146.61,424.917 147.917,423.61 147.917,422C147.917,420.39 146.61,419.083 145,419.083L127,419.083C125.535,419.083 124.321,420.166 124.114,421.574Z"/>
                </g>
            </g>
        </g>
    </g>
</svg>
