<?xml version="1.0" encoding="UTF-8" standalone="no"?>
<!DOCTYPE svg PUBLIC "-//W3C//DTD SVG 1.1//EN" "http://www.w3.org/Graphics/SVG/1.1/DTD/svg11.dtd">
<svg width="100%" height="100%" viewBox="0 0 64 65" version="1.1" xmlns="http://www.w3.org/2000/svg" style="fill-rule:evenodd;clip-rule:evenodd;stroke-linejoin:round;stroke-miterlimit:2;">
    <g transform="matrix(1,0,0,1,-100,-784)">
        <g id="download_show" transform="matrix(1,0,0,1,100,784.301)">
            <rect x="0" y="0" width="64" height="64" style="fill:none;"/>
            <g transform="matrix(1.38176,0,0,1.38176,-4.39865,-309.247)">
                <path d="M25.247,261.494C25.245,261.493 15.115,255.342 15.115,255.342C14.119,254.738 13.801,253.439 14.406,252.443C15.011,251.447 16.31,251.129 17.306,251.734L19.889,253.302L19.889,234.242C19.889,233.077 20.835,232.131 22,232.131C23.165,232.131 24.111,233.077 24.111,234.242L24.111,255.865L26.342,257.22L28.574,255.865L28.574,234.242C28.574,233.077 29.52,232.131 30.685,232.131C31.85,232.131 32.795,233.077 32.795,234.242L32.795,253.302L35.379,251.734C36.375,251.129 37.674,251.447 38.279,252.443C38.883,253.439 38.566,254.738 37.57,255.342C37.57,255.342 27.439,261.493 27.438,261.494C26.764,261.903 25.92,261.903 25.247,261.494Z"/>
            </g>
        </g>
    </g>
</svg>
