<?xml version="1.0" encoding="UTF-8" standalone="no"?>
<!DOCTYPE svg PUBLIC "-//W3C//DTD SVG 1.1//EN" "http://www.w3.org/Graphics/SVG/1.1/DTD/svg11.dtd">
<svg width="100%" height="100%" viewBox="0 0 65 65" version="1.1" xmlns="http://www.w3.org/2000/svg" style="fill-rule:evenodd;clip-rule:evenodd;stroke-linejoin:round;stroke-miterlimit:2;">
    <g transform="matrix(1,0,0,1,-101,-1159)">
        <g id="down_finish" transform="matrix(1,0,0,1,101.076,1159.43)">
            <rect x="0" y="0" width="64" height="64" style="fill:none;"/>
            <g transform="matrix(1,0,0,1,-101.076,-1159.43)">
                <path d="M130.709,1205.14C130.798,1205.26 130.897,1205.38 131.006,1205.49L131.022,1205.5C131.226,1205.71 131.455,1205.88 131.701,1206.01C132.133,1206.24 132.606,1206.35 133.076,1206.35C133.546,1206.35 134.02,1206.24 134.452,1206.01C134.697,1205.88 134.927,1205.71 135.131,1205.5L135.147,1205.49C135.256,1205.38 135.355,1205.26 135.444,1205.14L153.41,1181.18C154.376,1179.9 154.114,1178.07 152.826,1177.1C151.539,1176.13 149.709,1176.4 148.743,1177.68L133.076,1198.57L117.41,1177.68C116.444,1176.4 114.614,1176.13 113.326,1177.1C112.039,1178.07 111.777,1179.9 112.743,1181.18L130.709,1205.14Z"/>
            </g>
        </g>
    </g>
</svg>
