<?xml version="1.0" encoding="UTF-8" standalone="no"?>
<!DOCTYPE svg PUBLIC "-//W3C//DTD SVG 1.1//EN" "http://www.w3.org/Graphics/SVG/1.1/DTD/svg11.dtd">
<svg width="100%" height="100%" viewBox="0 0 64 64" version="1.1" xmlns="http://www.w3.org/2000/svg" style="fill-rule:evenodd;clip-rule:evenodd;stroke-linejoin:round;stroke-miterlimit:2;">
    <g transform="matrix(1,0,0,1,-100,0)">
        <g id="edit" transform="matrix(1,0,0,1,100,1.06581e-14)">
            <rect x="0" y="0" width="64" height="64" style="fill:none;"/>
            <path d="M35,7L7,7C5.343,7 4,8.343 4,10L4,57C4,58.657 5.343,60 7,60L53,60C54.657,60 56,58.657 56,57L56,29C56,27.344 54.656,26 53,26C51.344,26 50,27.344 50,29L50,54C50,54 10,54 10,54C10,54 10,13 10,13C10,13 35,13 35,13C36.656,13 38,11.656 38,10C38,8.344 36.656,7 35,7Z"/>
            <g transform="matrix(1,0,0,1,0,-92)">
                <path d="M53.923,113.358C54.035,113.274 54.142,113.181 54.244,113.08C54.337,112.986 54.423,112.889 54.501,112.787L57.646,109.677C57.65,109.673 57.654,109.669 57.658,109.665C60.78,106.543 60.78,101.474 57.658,98.352C54.536,95.23 49.466,95.23 46.344,98.352C46.356,98.34 24.382,120.067 24.382,120.067C24.039,120.405 23.783,120.821 23.636,121.28L20.154,132.08C19.804,133.165 20.1,134.355 20.918,135.151C21.736,135.946 22.934,136.209 24.009,135.829L34.562,132.1C34.978,131.953 35.357,131.715 35.671,131.404L53.923,113.358ZM45.02,108.099L47.848,110.927L31.93,126.666C31.93,126.666 27.724,128.152 27.724,128.152C27.724,128.152 29.122,123.818 29.122,123.818L45.02,108.099ZM52.115,106.708L49.287,103.88L50.587,102.594C51.367,101.814 52.635,101.814 53.415,102.594C54.192,103.371 54.196,104.631 53.426,105.412L53.418,105.42L52.115,106.708Z"/>
            </g>
        </g>
    </g>
</svg>
