<?xml version="1.0" encoding="UTF-8" standalone="no"?>
<!DOCTYPE svg PUBLIC "-//W3C//DTD SVG 1.1//EN" "http://www.w3.org/Graphics/SVG/1.1/DTD/svg11.dtd">
<svg width="100%" height="100%" viewBox="0 0 65 65" version="1.1" xmlns="http://www.w3.org/2000/svg" style="fill-rule:evenodd;clip-rule:evenodd;stroke-linejoin:round;stroke-miterlimit:2;">
    <g transform="matrix(1,0,0,1,-101,-871)">
        <g id="acept_add" transform="matrix(1,0,0,1,101.076,871.632)">
            <rect x="0" y="0" width="64" height="64" style="fill:none;"/>
            <g transform="matrix(1,0,0,1,-101.076,-871.632)">
                <path d="M122.183,919.131L111.704,897.367C111.006,895.916 109.262,895.306 107.811,896.004C106.361,896.702 105.75,898.447 106.448,899.897L119.448,926.897C119.588,927.186 119.768,927.442 119.98,927.661C120.191,927.879 120.441,928.068 120.725,928.217C121.142,928.435 121.588,928.542 122.028,928.548C122.469,928.556 122.918,928.464 123.342,928.26C123.631,928.121 123.886,927.94 124.105,927.728C124.324,927.517 124.513,927.268 124.661,926.983L147.661,882.983C148.407,881.557 147.854,879.793 146.428,879.047C145.001,878.301 143.237,878.854 142.492,880.281L122.183,919.131Z"/>
            </g>
            <g transform="matrix(2.64412e-17,-0.431818,0.431818,2.64412e-17,-226.409,58.3182)">
                <path d="M25.246,610L25.246,654C25.246,657.728 28.272,660.754 32,660.754C35.728,660.754 38.754,657.728 38.754,654L38.754,610C38.754,606.272 35.728,603.246 32,603.246C28.272,603.246 25.246,606.272 25.246,610Z"/>
            </g>
            <g transform="matrix(0.431818,0,0,0.431818,32.6818,-228.409)">
                <path d="M25.246,610L25.246,654C25.246,657.728 28.272,660.754 32,660.754C35.728,660.754 38.754,657.728 38.754,654L38.754,610C38.754,606.272 35.728,603.246 32,603.246C28.272,603.246 25.246,606.272 25.246,610Z"/>
            </g>
        </g>
    </g>
</svg>
