<?xml version="1.0" encoding="UTF-8" standalone="no"?>
<!DOCTYPE svg PUBLIC "-//W3C//DTD SVG 1.1//EN" "http://www.w3.org/Graphics/SVG/1.1/DTD/svg11.dtd">
<svg width="100%" height="100%" viewBox="0 0 65 65" version="1.1" style="fill-rule:evenodd;clip-rule:evenodd;stroke-linejoin:round;stroke-miterlimit:2;">
    <g transform="matrix(1,0,0,1,-101,-960)">
        <g id="save_finish" transform="matrix(1,0,0,1,101.076,960.632)">
            <rect x="0" y="0" width="64" height="64" style="fill:none;"/>
            <g transform="matrix(0.638335,-0.769759,0.174945,0.145076,-117.643,-21.1315)">
                <path d="M40.501,555.385L28.016,675.249C27.346,681.688 27.989,689.312 29.453,692.262C30.916,695.213 32.649,692.382 33.319,685.943L45.804,566.078C46.475,559.64 45.831,552.016 44.368,549.065C42.905,546.114 41.172,548.946 40.501,555.385Z"/>
            </g>
            <g transform="matrix(-0.769759,-0.638335,0.638335,-0.769759,-347.555,539.095)">
                <path d="M23.103,609.278L33.486,657.829C33.822,659.403 35.373,660.408 36.948,660.071C38.522,659.734 39.527,658.183 39.19,656.609L28.808,608.058C28.471,606.484 26.92,605.479 25.346,605.816C23.771,606.152 22.767,607.703 23.103,609.278Z"/>
            </g>
            <g transform="matrix(1,0,0,1,-101.076,-960.632)">
                <path d="M151.25,992.716L151.211,992.716C150.749,992.719 150.286,992.831 149.866,993.053L149.846,993.064L149.825,993.076C149.6,993.199 149.389,993.354 149.198,993.54L149.18,993.558C149.15,993.587 149.12,993.618 149.092,993.649L143.26,999.845C142.157,1001.02 142.213,1002.86 143.385,1003.97C144.557,1005.07 146.405,1005.01 147.508,1003.84L148.314,1002.99L148.314,1011.72L138.076,1011.72C136.467,1011.72 135.16,1013.02 135.16,1014.63C135.16,1016.24 136.467,1017.55 138.076,1017.55L151.23,1017.55C152.702,1017.55 153.92,1016.46 154.119,1015.04L154.147,1014.63L154.147,1002.99L154.952,1003.84C156.056,1005.01 157.903,1005.07 159.075,1003.97C160.248,1002.86 160.304,1001.02 159.2,999.845L153.367,993.646C153.354,993.633 153.341,993.619 153.328,993.606L153.31,993.587L153.275,993.552L153.256,993.534C153.067,993.351 152.858,993.198 152.636,993.076L152.602,993.057L152.594,993.053C152.174,992.831 151.712,992.719 151.25,992.716Z"/>
            </g>
        </g>
    </g>
</svg>
