<?xml version="1.0" encoding="UTF-8" standalone="no"?>
<!DOCTYPE svg PUBLIC "-//W3C//DTD SVG 1.1//EN" "http://www.w3.org/Graphics/SVG/1.1/DTD/svg11.dtd">
<svg width="100%" height="100%" viewBox="0 0 65 64" version="1.1" xmlns="http://www.w3.org/2000/svg" style="fill-rule:evenodd;clip-rule:evenodd;stroke-linejoin:round;stroke-miterlimit:2;">
    <g transform="matrix(1,0,0,1,-271,-200)">
        <g id="sexes_male" transform="matrix(1,0,0,1,271.181,200)">
            <rect x="0" y="0" width="64" height="64" style="fill:none;"/>
            <g transform="matrix(1,0,0,1,-271.181,-200)">
                <path d="M315.755,212.966L305.839,222.881C303.541,221.809 300.979,221.21 298.278,221.21C288.392,221.21 280.365,229.236 280.365,239.122C280.365,249.008 288.392,257.034 298.278,257.034C308.164,257.034 316.19,249.008 316.19,239.122C316.19,234.129 314.143,229.611 310.844,226.362L319.997,217.208L319.997,222.642C319.997,224.298 321.341,225.642 322.997,225.642C324.653,225.642 325.997,224.298 325.997,222.642L325.997,209.966C325.997,209.454 325.869,208.972 325.643,208.551C325.535,208.348 325.401,208.154 325.242,207.976L325.225,207.956L325.199,207.928L325.169,207.896L325.145,207.871C325.136,207.862 325.127,207.853 325.119,207.844L325.091,207.817L325.063,207.79L325.035,207.764L325.007,207.738L324.987,207.721C324.808,207.562 324.615,207.428 324.412,207.32C323.991,207.094 323.509,206.966 322.997,206.966L310.321,206.966C308.665,206.966 307.321,208.31 307.321,209.966C307.321,211.621 308.665,212.966 310.321,212.966L315.755,212.966ZM298.278,227.21C304.852,227.21 310.19,232.547 310.19,239.122C310.19,245.697 304.852,251.034 298.278,251.034C291.703,251.034 286.365,245.697 286.365,239.122C286.365,232.547 291.703,227.21 298.278,227.21Z"/>
            </g>
        </g>
    </g>
</svg>
