<?xml version="1.0" encoding="UTF-8" standalone="no"?>
<!DOCTYPE svg PUBLIC "-//W3C//DTD SVG 1.1//EN" "http://www.w3.org/Graphics/SVG/1.1/DTD/svg11.dtd">
<svg width="100%" height="100%" viewBox="0 0 65 65" version="1.1" xmlns="http://www.w3.org/2000/svg" style="fill-rule:evenodd;clip-rule:evenodd;stroke-linejoin:round;stroke-miterlimit:2;">
    <g transform="matrix(1,0,0,1,-434,-200)">
        <g id="sexes_female" transform="matrix(1,0,0,1,434.381,200.29)">
            <rect x="0" y="0" width="64" height="64" style="fill:none;"/>
            <g transform="matrix(1,0,0,1,-399.886,-295.106)">
                <path d="M428.886,337.655L428.886,340.656L426.436,340.656C424.78,340.656 423.436,342.001 423.436,343.656C423.436,345.312 424.78,346.656 426.436,346.656L428.886,346.656L428.886,349.106C428.886,350.761 430.23,352.106 431.886,352.106C433.541,352.106 434.886,350.761 434.886,349.106L434.886,346.656L437.335,346.656C438.991,346.656 440.335,345.312 440.335,343.656C440.335,342.001 438.991,340.656 437.335,340.656L434.886,340.656L434.886,337.655C443.339,336.226 449.786,328.862 449.786,320.006C449.786,310.126 441.765,302.106 431.886,302.106C422.006,302.106 413.986,310.126 413.986,320.006C413.986,328.862 420.432,336.226 428.886,337.655ZM431.886,308.106C438.453,308.106 443.786,313.438 443.786,320.006C443.786,326.573 438.453,331.906 431.886,331.906C425.318,331.906 419.986,326.573 419.986,320.006C419.986,313.438 425.318,308.106 431.886,308.106Z"/>
            </g>
        </g>
    </g>
</svg>
