<?xml version="1.0" encoding="UTF-8" standalone="no"?>
<!DOCTYPE svg PUBLIC "-//W3C//DTD SVG 1.1//EN" "http://www.w3.org/Graphics/SVG/1.1/DTD/svg11.dtd">
<svg width="100%" height="100%" viewBox="0 0 65 64" version="1.1" xmlns="http://www.w3.org/2000/svg"  style="fill-rule:evenodd;clip-rule:evenodd;stroke-linejoin:round;stroke-miterlimit:2;">
    <g transform="matrix(1,0,0,1,-99,-200)">
        <g id="sexes" transform="matrix(1,0,0,1,99.7676,200)">
            <rect x="0" y="0" width="64" height="64" style="fill:none;"/>
            <g transform="matrix(1,0,0,1,-183.959,-92)">
                <path d="M209.091,136.458L209.091,141L207.091,141C205.435,141 204.091,142.344 204.091,144C204.091,145.656 205.435,147 207.091,147L209.091,147L209.091,149C209.091,150.656 210.435,152 212.091,152C213.747,152 215.091,150.656 215.091,149L215.091,147L217.091,147C218.747,147 220.091,145.656 220.091,144C220.091,142.344 218.747,141 217.091,141L215.091,141L215.091,136.458C221.802,135.071 226.855,129.121 226.855,122C226.855,118.115 225.351,114.578 222.893,111.94L228.591,106.243L228.591,109C228.591,110.656 229.935,112 231.591,112C233.247,112 234.591,110.656 234.591,109L234.591,99C234.591,98.488 234.463,98.007 234.237,97.585C234.128,97.382 233.995,97.189 233.836,97.01L233.581,96.755C233.402,96.596 233.209,96.463 233.006,96.354C232.584,96.128 232.103,96 231.591,96L221.591,96C219.935,96 218.591,97.344 218.591,99C218.591,100.656 219.935,102 221.591,102L224.348,102L217.916,108.432C216.128,107.662 214.159,107.236 212.091,107.236C203.943,107.236 197.327,113.852 197.327,122C197.327,129.121 202.379,135.071 209.091,136.458ZM212.091,113.236C216.928,113.236 220.855,117.163 220.855,122C220.855,126.837 216.928,130.764 212.091,130.764C207.254,130.764 203.327,126.837 203.327,122C203.327,117.163 207.254,113.236 212.091,113.236Z"/>
            </g>
        </g>
    </g>
</svg>
