<?xml version="1.0" encoding="UTF-8" standalone="no"?>
<!DOCTYPE svg PUBLIC "-//W3C//DTD SVG 1.1//EN" "http://www.w3.org/Graphics/SVG/1.1/DTD/svg11.dtd">
<svg width="100%" height="100%" viewBox="0 0 65 65" version="1.1" xmlns="http://www.w3.org/2000/svg" style="fill-rule:evenodd;clip-rule:evenodd;stroke-linejoin:round;stroke-miterlimit:2;">
    <g transform="matrix(1,0,0,1,-101,-1248)">
        <g id="up_finish" transform="matrix(1,0,0,1,101.076,1248.43)">
            <rect x="0" y="0" width="64" height="64" style="fill:none;"/>
            <g transform="matrix(1,0,0,1,-101.076,-1248.43)">
                <path d="M133.076,1265.52C132.606,1265.52 132.133,1265.63 131.701,1265.86C131.455,1265.99 131.226,1266.16 131.022,1266.36L131.006,1266.38C130.897,1266.49 130.798,1266.61 130.709,1266.73L112.743,1290.68C111.777,1291.97 112.039,1293.8 113.326,1294.77C114.614,1295.73 116.444,1295.47 117.41,1294.18L133.076,1273.3L148.743,1294.18C149.709,1295.47 151.539,1295.73 152.826,1294.77C154.114,1293.8 154.376,1291.97 153.41,1290.68L135.444,1266.73C135.355,1266.61 135.256,1266.49 135.147,1266.38L135.131,1266.36C134.927,1266.16 134.698,1265.99 134.452,1265.86C134.02,1265.63 133.546,1265.52 133.076,1265.52Z"/>
            </g>
        </g>
    </g>
</svg>
